<mxfile host="app.diagrams.net" modified="2024-05-11T07:59:39.065Z" agent="Mozilla/5.0 (Windows NT 10.0; Win64; x64) AppleWebKit/537.36 (KHTML, like Gecko) Chrome/124.0.0.0 Safari/537.36" etag="bNDCIGRvjkxHw7T-pujG" version="24.4.0" type="device">
  <diagram name="Page-1" id="HRYeZZNiMnqY3GU1EIhf">
    <mxGraphModel dx="1502" dy="564" grid="1" gridSize="10" guides="1" tooltips="1" connect="1" arrows="1" fold="1" page="1" pageScale="1" pageWidth="850" pageHeight="1100" math="0" shadow="0">
      <root>
        <mxCell id="0" />
        <mxCell id="1" parent="0" />
        <mxCell id="wEswStgh9E6GAKq3daX0-1" value="USER" style="rounded=0;whiteSpace=wrap;html=1;" vertex="1" parent="1">
          <mxGeometry x="190" y="264" width="120" height="60" as="geometry" />
        </mxCell>
        <mxCell id="wEswStgh9E6GAKq3daX0-4" value="Name" style="ellipse;whiteSpace=wrap;html=1;" vertex="1" parent="1">
          <mxGeometry x="70" y="144" width="90" height="60" as="geometry" />
        </mxCell>
        <mxCell id="wEswStgh9E6GAKq3daX0-5" value="&lt;u&gt;ID&lt;/u&gt;" style="ellipse;whiteSpace=wrap;html=1;" vertex="1" parent="1">
          <mxGeometry x="10" y="204" width="90" height="60" as="geometry" />
        </mxCell>
        <mxCell id="wEswStgh9E6GAKq3daX0-6" value="Email" style="ellipse;whiteSpace=wrap;html=1;" vertex="1" parent="1">
          <mxGeometry x="160" y="104" width="90" height="60" as="geometry" />
        </mxCell>
        <mxCell id="wEswStgh9E6GAKq3daX0-7" value="Role" style="ellipse;whiteSpace=wrap;html=1;" vertex="1" parent="1">
          <mxGeometry x="20" y="274" width="90" height="50" as="geometry" />
        </mxCell>
        <mxCell id="wEswStgh9E6GAKq3daX0-8" value="Password" style="ellipse;whiteSpace=wrap;html=1;" vertex="1" parent="1">
          <mxGeometry x="265" y="109" width="85" height="50" as="geometry" />
        </mxCell>
        <mxCell id="wEswStgh9E6GAKq3daX0-9" value="Image" style="ellipse;whiteSpace=wrap;html=1;" vertex="1" parent="1">
          <mxGeometry x="320" y="164" width="90" height="50" as="geometry" />
        </mxCell>
        <mxCell id="wEswStgh9E6GAKq3daX0-10" value="Description" style="ellipse;whiteSpace=wrap;html=1;" vertex="1" parent="1">
          <mxGeometry x="360" y="234" width="90" height="50" as="geometry" />
        </mxCell>
        <mxCell id="wEswStgh9E6GAKq3daX0-11" value="enabled" style="ellipse;whiteSpace=wrap;html=1;" vertex="1" parent="1">
          <mxGeometry x="40" y="344" width="90" height="50" as="geometry" />
        </mxCell>
        <mxCell id="wEswStgh9E6GAKq3daX0-12" value="" style="endArrow=none;html=1;rounded=0;exitX=0.34;exitY=0.023;exitDx=0;exitDy=0;exitPerimeter=0;" edge="1" parent="1">
          <mxGeometry width="50" height="50" relative="1" as="geometry">
            <mxPoint x="230.79999999999995" y="270.38" as="sourcePoint" />
            <mxPoint x="140" y="194" as="targetPoint" />
            <Array as="points">
              <mxPoint x="140" y="194" />
            </Array>
          </mxGeometry>
        </mxCell>
        <mxCell id="wEswStgh9E6GAKq3daX0-20" value="" style="endArrow=none;html=1;rounded=0;entryX=0.25;entryY=0;entryDx=0;entryDy=0;" edge="1" parent="1">
          <mxGeometry width="50" height="50" relative="1" as="geometry">
            <mxPoint x="90" y="234" as="sourcePoint" />
            <mxPoint x="220" y="269" as="targetPoint" />
            <Array as="points">
              <mxPoint x="90" y="234" />
            </Array>
          </mxGeometry>
        </mxCell>
        <mxCell id="wEswStgh9E6GAKq3daX0-22" value="" style="endArrow=none;html=1;rounded=0;" edge="1" parent="1">
          <mxGeometry width="50" height="50" relative="1" as="geometry">
            <mxPoint x="260" y="274" as="sourcePoint" />
            <mxPoint x="204.5" y="151" as="targetPoint" />
            <Array as="points">
              <mxPoint x="260" y="274" />
              <mxPoint x="204.5" y="151" />
            </Array>
          </mxGeometry>
        </mxCell>
        <mxCell id="wEswStgh9E6GAKq3daX0-24" value="" style="endArrow=none;html=1;rounded=0;" edge="1" parent="1">
          <mxGeometry width="50" height="50" relative="1" as="geometry">
            <mxPoint x="287.1428571428571" y="269" as="sourcePoint" />
            <mxPoint x="380" y="194" as="targetPoint" />
          </mxGeometry>
        </mxCell>
        <mxCell id="wEswStgh9E6GAKq3daX0-25" value="" style="endArrow=none;html=1;rounded=0;exitX=0.75;exitY=0;exitDx=0;exitDy=0;" edge="1" parent="1">
          <mxGeometry width="50" height="50" relative="1" as="geometry">
            <mxPoint x="280" y="269" as="sourcePoint" />
            <mxPoint x="310" y="154" as="targetPoint" />
          </mxGeometry>
        </mxCell>
        <mxCell id="wEswStgh9E6GAKq3daX0-26" value="" style="endArrow=none;html=1;rounded=0;" edge="1" parent="1">
          <mxGeometry width="50" height="50" relative="1" as="geometry">
            <mxPoint x="190" y="297.2352941176471" as="sourcePoint" />
            <mxPoint x="80" y="294" as="targetPoint" />
            <Array as="points">
              <mxPoint x="80" y="294" />
            </Array>
          </mxGeometry>
        </mxCell>
        <mxCell id="wEswStgh9E6GAKq3daX0-27" value="" style="endArrow=none;html=1;rounded=0;" edge="1" parent="1">
          <mxGeometry width="50" height="50" relative="1" as="geometry">
            <mxPoint x="190" y="325" as="sourcePoint" />
            <mxPoint x="100" y="364" as="targetPoint" />
            <Array as="points">
              <mxPoint x="100" y="364" />
            </Array>
          </mxGeometry>
        </mxCell>
        <mxCell id="wEswStgh9E6GAKq3daX0-39" value="" style="endArrow=none;html=1;rounded=0;" edge="1" parent="1" target="wEswStgh9E6GAKq3daX0-10">
          <mxGeometry width="50" height="50" relative="1" as="geometry">
            <mxPoint x="297" y="279" as="sourcePoint" />
            <mxPoint x="390" y="204" as="targetPoint" />
          </mxGeometry>
        </mxCell>
        <mxCell id="wEswStgh9E6GAKq3daX0-40" value="USER" style="rounded=0;whiteSpace=wrap;html=1;" vertex="1" parent="1">
          <mxGeometry x="680" y="264" width="120" height="60" as="geometry" />
        </mxCell>
        <mxCell id="wEswStgh9E6GAKq3daX0-41" value="Name" style="ellipse;whiteSpace=wrap;html=1;" vertex="1" parent="1">
          <mxGeometry x="550" y="149" width="90" height="60" as="geometry" />
        </mxCell>
        <mxCell id="wEswStgh9E6GAKq3daX0-42" value="&lt;u&gt;CID&lt;/u&gt;" style="ellipse;whiteSpace=wrap;html=1;" vertex="1" parent="1">
          <mxGeometry x="490" y="209" width="90" height="60" as="geometry" />
        </mxCell>
        <mxCell id="wEswStgh9E6GAKq3daX0-43" value="nickName" style="ellipse;whiteSpace=wrap;html=1;" vertex="1" parent="1">
          <mxGeometry x="640" y="109" width="90" height="60" as="geometry" />
        </mxCell>
        <mxCell id="wEswStgh9E6GAKq3daX0-44" value="description" style="ellipse;whiteSpace=wrap;html=1;" vertex="1" parent="1">
          <mxGeometry x="500" y="279" width="90" height="50" as="geometry" />
        </mxCell>
        <mxCell id="wEswStgh9E6GAKq3daX0-45" value="work" style="ellipse;whiteSpace=wrap;html=1;" vertex="1" parent="1">
          <mxGeometry x="745" y="114" width="85" height="50" as="geometry" />
        </mxCell>
        <mxCell id="wEswStgh9E6GAKq3daX0-46" value="email" style="ellipse;whiteSpace=wrap;html=1;" vertex="1" parent="1">
          <mxGeometry x="800" y="169" width="90" height="50" as="geometry" />
        </mxCell>
        <mxCell id="wEswStgh9E6GAKq3daX0-47" value="image" style="ellipse;whiteSpace=wrap;html=1;" vertex="1" parent="1">
          <mxGeometry x="840" y="239" width="90" height="50" as="geometry" />
        </mxCell>
        <mxCell id="wEswStgh9E6GAKq3daX0-48" value="phone" style="ellipse;whiteSpace=wrap;html=1;" vertex="1" parent="1">
          <mxGeometry x="520" y="349" width="90" height="50" as="geometry" />
        </mxCell>
        <mxCell id="wEswStgh9E6GAKq3daX0-49" value="" style="endArrow=none;html=1;rounded=0;exitX=0.34;exitY=0.023;exitDx=0;exitDy=0;exitPerimeter=0;" edge="1" parent="1">
          <mxGeometry width="50" height="50" relative="1" as="geometry">
            <mxPoint x="710.8" y="275.38" as="sourcePoint" />
            <mxPoint x="620" y="199" as="targetPoint" />
            <Array as="points">
              <mxPoint x="620" y="199" />
            </Array>
          </mxGeometry>
        </mxCell>
        <mxCell id="wEswStgh9E6GAKq3daX0-50" value="" style="endArrow=none;html=1;rounded=0;entryX=0.25;entryY=0;entryDx=0;entryDy=0;" edge="1" parent="1">
          <mxGeometry width="50" height="50" relative="1" as="geometry">
            <mxPoint x="570" y="239" as="sourcePoint" />
            <mxPoint x="700" y="274" as="targetPoint" />
            <Array as="points">
              <mxPoint x="570" y="239" />
            </Array>
          </mxGeometry>
        </mxCell>
        <mxCell id="wEswStgh9E6GAKq3daX0-51" value="" style="endArrow=none;html=1;rounded=0;" edge="1" parent="1">
          <mxGeometry width="50" height="50" relative="1" as="geometry">
            <mxPoint x="740" y="279" as="sourcePoint" />
            <mxPoint x="684.5" y="156" as="targetPoint" />
            <Array as="points">
              <mxPoint x="740" y="279" />
              <mxPoint x="684.5" y="156" />
            </Array>
          </mxGeometry>
        </mxCell>
        <mxCell id="wEswStgh9E6GAKq3daX0-52" value="" style="endArrow=none;html=1;rounded=0;" edge="1" parent="1">
          <mxGeometry width="50" height="50" relative="1" as="geometry">
            <mxPoint x="767.1428571428571" y="274" as="sourcePoint" />
            <mxPoint x="860" y="199" as="targetPoint" />
          </mxGeometry>
        </mxCell>
        <mxCell id="wEswStgh9E6GAKq3daX0-53" value="" style="endArrow=none;html=1;rounded=0;exitX=0.75;exitY=0;exitDx=0;exitDy=0;" edge="1" parent="1">
          <mxGeometry width="50" height="50" relative="1" as="geometry">
            <mxPoint x="760" y="274" as="sourcePoint" />
            <mxPoint x="790" y="159" as="targetPoint" />
          </mxGeometry>
        </mxCell>
        <mxCell id="wEswStgh9E6GAKq3daX0-54" value="" style="endArrow=none;html=1;rounded=0;" edge="1" parent="1">
          <mxGeometry width="50" height="50" relative="1" as="geometry">
            <mxPoint x="670" y="302.2352941176471" as="sourcePoint" />
            <mxPoint x="560" y="299" as="targetPoint" />
            <Array as="points">
              <mxPoint x="560" y="299" />
            </Array>
          </mxGeometry>
        </mxCell>
        <mxCell id="wEswStgh9E6GAKq3daX0-55" value="" style="endArrow=none;html=1;rounded=0;" edge="1" parent="1">
          <mxGeometry width="50" height="50" relative="1" as="geometry">
            <mxPoint x="670" y="330" as="sourcePoint" />
            <mxPoint x="580" y="369" as="targetPoint" />
            <Array as="points">
              <mxPoint x="580" y="369" />
            </Array>
          </mxGeometry>
        </mxCell>
        <mxCell id="wEswStgh9E6GAKq3daX0-56" value="" style="endArrow=none;html=1;rounded=0;" edge="1" parent="1" target="wEswStgh9E6GAKq3daX0-47">
          <mxGeometry width="50" height="50" relative="1" as="geometry">
            <mxPoint x="777" y="284" as="sourcePoint" />
            <mxPoint x="870" y="209" as="targetPoint" />
          </mxGeometry>
        </mxCell>
        <mxCell id="wEswStgh9E6GAKq3daX0-57" value="HAS" style="rhombus;whiteSpace=wrap;html=1;" vertex="1" parent="1">
          <mxGeometry x="440" y="450" width="80" height="80" as="geometry" />
        </mxCell>
        <mxCell id="wEswStgh9E6GAKq3daX0-58" value="" style="endArrow=none;html=1;rounded=0;exitX=0;exitY=0.5;exitDx=0;exitDy=0;" edge="1" parent="1" source="wEswStgh9E6GAKq3daX0-57" target="wEswStgh9E6GAKq3daX0-1">
          <mxGeometry width="50" height="50" relative="1" as="geometry">
            <mxPoint x="265" y="420" as="sourcePoint" />
            <mxPoint x="315" y="370" as="targetPoint" />
          </mxGeometry>
        </mxCell>
        <mxCell id="wEswStgh9E6GAKq3daX0-76" value="" style="endArrow=none;html=1;rounded=0;exitX=0.645;exitY=0.993;exitDx=0;exitDy=0;exitPerimeter=0;entryX=1;entryY=0.5;entryDx=0;entryDy=0;" edge="1" parent="1" source="wEswStgh9E6GAKq3daX0-40" target="wEswStgh9E6GAKq3daX0-57">
          <mxGeometry width="50" height="50" relative="1" as="geometry">
            <mxPoint x="730" y="390" as="sourcePoint" />
            <mxPoint x="425" y="430" as="targetPoint" />
          </mxGeometry>
        </mxCell>
        <mxCell id="wEswStgh9E6GAKq3daX0-77" value="1" style="text;html=1;align=center;verticalAlign=middle;whiteSpace=wrap;rounded=0;" vertex="1" parent="1">
          <mxGeometry x="300" y="380" width="60" height="30" as="geometry" />
        </mxCell>
        <mxCell id="wEswStgh9E6GAKq3daX0-78" value="1" style="text;html=1;align=center;verticalAlign=middle;whiteSpace=wrap;rounded=0;" vertex="1" parent="1">
          <mxGeometry x="630" y="420" width="60" height="30" as="geometry" />
        </mxCell>
      </root>
    </mxGraphModel>
  </diagram>
</mxfile>
